<svg xmlns="http://www.w3.org/2000/svg" width="28" height="28" fill="none" viewBox="-0.14 0 1.4 1.4">
    <path fill="#EB5757" d="M0.898 0.913c-0.017 0.005 -0.042 0.006 -0.069 0.002a0.329 0.329 0 0 1 -0.087 -0.026c0.052 -0.007 0.092 -0.005 0.126 0.007 0.008 0.003 0.021 0.011 0.03 0.017m-0.287 -0.047 -0.006 0.002c-0.014 0.004 -0.027 0.007 -0.04 0.011l-0.018 0.004a2.31 2.31 0 0 0 -0.107 0.029c0.014 -0.033 0.026 -0.066 0.038 -0.098 0.009 -0.024 0.018 -0.048 0.028 -0.072q0.007 0.012 0.015 0.024a0.473 0.473 0 0 0 0.089 0.1m-0.09 -0.368c0.002 0.04 -0.006 0.079 -0.019 0.116 -0.016 -0.046 -0.023 -0.097 -0.003 -0.138 0.005 -0.011 0.009 -0.016 0.012 -0.019 0.004 0.006 0.01 0.021 0.011 0.041m-0.184 0.51q-0.013 0.024 -0.027 0.045c-0.022 0.034 -0.059 0.069 -0.077 0.069 -0.002 0 -0.004 0 -0.007 -0.004 -0.002 -0.002 -0.002 -0.004 -0.002 -0.006 0.001 -0.012 0.017 -0.034 0.041 -0.055a0.399 0.399 0 0 1 0.073 -0.05m0.621 -0.093c-0.003 -0.041 -0.072 -0.067 -0.073 -0.068 -0.027 -0.009 -0.056 -0.014 -0.089 -0.014 -0.035 0 -0.073 0.005 -0.122 0.017a0.427 0.427 0 0 1 -0.109 -0.112 0.7 0.7 0 0 1 -0.033 -0.056c0.024 -0.057 0.045 -0.118 0.041 -0.186 -0.003 -0.055 -0.028 -0.092 -0.061 -0.092 -0.023 0 -0.043 0.017 -0.059 0.051 -0.029 0.06 -0.021 0.137 0.023 0.229a3.22 3.22 0 0 0 -0.045 0.112c-0.018 0.046 -0.036 0.094 -0.056 0.139 -0.057 0.023 -0.105 0.05 -0.144 0.084 -0.026 0.022 -0.057 0.056 -0.059 0.091 -0.001 0.017 0.005 0.032 0.016 0.044 0.012 0.013 0.028 0.02 0.045 0.02 0.056 0 0.11 -0.077 0.12 -0.093a0.84 0.84 0 0 0 0.059 -0.106c0.048 -0.017 0.098 -0.03 0.148 -0.042l0.018 -0.004a2.38 2.38 0 0 0 0.041 -0.011c0.015 -0.004 0.03 -0.008 0.046 -0.012 0.051 0.032 0.105 0.053 0.158 0.061 0.045 0.006 0.084 0.003 0.111 -0.011 0.024 -0.013 0.025 -0.032 0.025 -0.04m0.109 0.353c0 0.075 -0.066 0.08 -0.08 0.08H0.131c-0.075 0 -0.08 -0.067 -0.08 -0.08V0.131c0 -0.075 0.066 -0.08 0.08 -0.08h0.578l0 0v0.226c0 0.045 0.027 0.131 0.131 0.131h0.224l0.002 0.002v0.858Zm-0.053 -0.912h-0.173c-0.075 0 -0.08 -0.066 -0.08 -0.08v-0.174zm0.105 0.912V0.389L0.761 0.03V0.029h-0.002L0.731 0H0.131C0.086 0 0 0.027 0 0.131v1.137C0 1.314 0.027 1.4 0.131 1.4H0.987c0.045 0 0.131 -0.028 0.131 -0.131"/>
</svg>